<?xml version="1.0" encoding="utf-8"?>
<!-- Generator: Adobe Illustrator 19.2.1, SVG Export Plug-In . SVG Version: 6.00 Build 0)  -->
<svg version="1.1" id="Lager_1" xmlns="http://www.w3.org/2000/svg" xmlns:xlink="http://www.w3.org/1999/xlink" x="0px" y="0px"
	 width="24px" height="24px" viewBox="0 0 24 24" style="enable-background:new 0 0 24 24;" xml:space="preserve">
<style type="text/css">
	.st0{fill:#489BFF;}
</style>
<path class="st0" d="M12,23.2c1.7,0,3.3-0.3,4.7-0.9c0,0,0.1,0,0.1,0c0,0,0,0,0,0c0.2-0.1,0.4-0.1,0.6-0.1c0.2,0,0.5,0,0.7,0.1
	L23,24l-1.3-5.1c0-0.3,0.1-0.6,0.2-0.8l0,0c0-0.1,0.1-0.2,0.1-0.2c1.2-1.8,1.9-4,1.9-6.3C24,5.2,18.6,0,12,0S0,5.2,0,11.6
	C0,18,5.4,23.2,12,23.2z"/>
</svg>
