<?xml version="1.0" encoding="utf-8"?>
<!-- Generator: Adobe Illustrator 19.2.1, SVG Export Plug-In . SVG Version: 6.00 Build 0)  -->
<svg version="1.1" id="Lager_1" xmlns="http://www.w3.org/2000/svg" xmlns:xlink="http://www.w3.org/1999/xlink" x="0px" y="0px"
	 width="16px" height="16px" viewBox="0 0 16 16" style="enable-background:new 0 0 16 16;" xml:space="preserve">
<style type="text/css">
	.st0{fill:#00497A;}
</style>
<g>
	<g>
		<circle class="st0" cx="8" cy="8" r="3.3"/>
	</g>
	<g>
		<path class="st0" d="M4.7,4.7C5.6,3.8,6.8,3.3,8,3.3s2.4,0.5,3.3,1.4c0.6,0.6,1,1.2,1.2,2H16V2c0-1.1-0.9-2-2-2H2C0.9,0,0,0.9,0,2
			v4.7h3.5C3.8,5.9,4.2,5.2,4.7,4.7z M14.7,3.5c0,0.3-0.2,0.5-0.5,0.5h-1.6C12.2,4,12,3.8,12,3.5V1.9c0-0.3,0.2-0.5,0.5-0.5h1.6
			c0.3,0,0.5,0.2,0.5,0.5V3.5z"/>
		<path class="st0" d="M11.3,11.3c-0.9,0.9-2.1,1.4-3.3,1.4s-2.4-0.5-3.3-1.4C3.8,10.4,3.4,9.2,3.4,8H0v6c0,1.1,0.9,2,2,2h12
			c1.1,0,2-0.9,2-2V8h-3.3C12.7,9.2,12.2,10.4,11.3,11.3z"/>
	</g>
</g>
</svg>
