<?xml version="1.0" encoding="utf-8"?>
<!-- Generator: Adobe Illustrator 19.1.0, SVG Export Plug-In . SVG Version: 6.00 Build 0)  -->
<svg version="1.1" id="Layer_1" xmlns="http://www.w3.org/2000/svg" xmlns:xlink="http://www.w3.org/1999/xlink" x="0px" y="0px"
	 width="512px" height="512px" viewBox="-948 2579.3 512 512" style="enable-background:new -948 2579.3 512 512;"
	 xml:space="preserve">
<style type="text/css">
	.st0{fill:#489BFF;}
</style>
<path class="st0" d="M-464.4,2934.8c-35.6,0-69.7-5.7-101-15.6c-10-2.8-21.3-1.4-28.4,7.1l-62.6,62.6
	c-81.1-41.2-146.5-106.7-187.7-187.7l62.6-62.6c7.1-7.1,9.9-18.5,7.1-28.4c-11.4-32.7-17.1-66.8-17.1-102.4
	c0-15.6-12.8-28.4-28.4-28.4h-99.6c-15.6,0-28.4,12.8-28.4,28.4c0,267.4,216.2,483.6,483.6,483.6c15.6,0,28.4-12.8,28.4-28.4v-99.6
	C-436,2947.7-448.8,2934.8-464.4,2934.8z"/>
</svg>
